<svg width="1024" height="1024" viewBox="0 0 1024 1024" fill="none" xmlns="http://www.w3.org/2000/svg">
<path d="M924 0H100C44.7715 0 0 44.7715 0 100V924C0 979.228 44.7715 1024 100 1024H924C979.228 1024 1024 979.228 1024 924V100C1024 44.7715 979.228 0 924 0Z" fill="white"/>
<path d="M617.212 410.613C617.212 383.214 641.216 371.902 668.727 371.902L772.423 361.002C799.933 361.002 824.543 369.741 824.543 397.14C824.543 424.539 799.933 460.224 772.423 460.224H667.024C639.514 460.224 617.212 438.012 617.212 410.613Z" fill="#323232"/>
<path d="M846.473 328.31C818.963 328.31 722.611 284.867 722.611 257.467C722.611 230.068 744.913 207.857 772.423 207.857C799.933 207.857 822.235 230.068 822.235 257.467C822.235 284.867 873.983 328.31 846.473 328.31Z" fill="#323232"/>
<path d="M421.282 413.354C406.167 421.443 391.729 430.318 377.967 439.98C364.206 449.641 352.024 459.527 341.421 469.638C330.818 479.749 325.516 488.512 325.516 495.926C325.516 503.341 331.494 507.048 343.451 507.048C351.798 507.048 363.98 503.004 379.998 494.915L453.429 456.157C466.965 449.192 479.035 440.991 489.638 431.554L513.664 410.658C530.809 395.155 548.744 387.403 567.468 387.403C577.169 387.403 586.87 392.796 596.57 403.58C606.271 414.365 611.121 425.375 611.121 436.609C611.121 462.448 600.518 500.645 579.312 551.199L633.455 507.048L745.126 420.432C757.082 411.444 767.009 406.951 774.905 406.951C792.05 406.951 822.235 394.93 822.235 411.332C822.235 428.184 789.568 470.087 767.46 496.6C757.082 509.183 742.644 522.776 724.145 537.381L536.674 678.933C524.267 688.819 514.453 697.02 507.234 703.536C477.455 751.394 448.805 786.108 421.282 807.678C381.351 839.134 344.353 854.862 310.288 854.862C294.948 854.862 282.427 850.593 272.726 842.055C263.928 834.64 259.529 825.99 259.529 816.103C259.529 806.891 262.011 796.893 266.974 786.108C271.937 775.548 278.592 764.875 286.939 754.09C295.286 743.305 304.761 732.633 315.364 722.072C325.967 711.512 337.247 701.289 349.204 691.403C380.787 666.463 403.234 649.274 416.544 639.837L449.707 615.908C462.792 588.272 474.071 558.389 483.547 526.259C440.006 564.455 393.646 594.451 344.466 616.245C319.876 627.255 299.46 632.76 283.217 632.76C266.974 632.76 252.084 629.39 238.549 622.649C225.013 615.908 213.395 607.033 203.694 596.024C183.616 572.881 173.577 546.031 173.577 515.474C173.577 483.569 185.646 456.719 209.785 434.924C246.106 402.12 297.542 373.585 364.093 349.319C428.163 325.727 482.418 313.931 526.861 313.931C541.525 313.931 548.857 321.121 548.857 335.501C548.857 345.387 546.939 353.026 543.104 358.419C539.494 363.586 530.583 368.642 516.371 373.585C502.384 378.528 486.818 384.37 469.672 391.11C452.753 397.851 436.622 405.266 421.282 413.354Z" fill="#323232"/>
</svg>
