<svg width="682" height="648" viewBox="0 0 682 648" fill="none" xmlns="http://www.w3.org/2000/svg">
<path d="M444.212 203.613C444.212 176.214 468.216 164.902 495.727 164.902L599.423 154.003C626.933 154.003 651.543 162.741 651.543 190.14C651.543 217.539 626.933 253.224 599.423 253.224H494.024C466.514 253.224 444.212 231.012 444.212 203.613Z" fill="#323232"/>
<path d="M673.473 121.31C645.963 121.31 549.611 77.8665 549.611 50.4673C549.611 23.0681 571.913 0.856721 599.423 0.85672C626.933 0.856719 649.235 23.0681 649.235 50.4673C649.235 77.8665 700.983 121.31 673.473 121.31Z" fill="#323232"/>
<path d="M248.282 206.354C233.167 214.443 218.729 223.318 204.967 232.98C191.206 242.641 179.024 252.527 168.421 262.638C157.818 272.749 152.516 281.512 152.516 288.926C152.516 296.341 158.494 300.048 170.451 300.048C178.798 300.048 190.98 296.004 206.998 287.915L280.429 249.157C293.965 242.192 306.035 233.991 316.638 224.554L340.664 203.658C357.809 188.155 375.744 180.403 394.468 180.403C404.169 180.403 413.87 185.796 423.57 196.58C433.271 207.365 438.121 218.375 438.121 229.609C438.121 255.448 427.518 293.645 406.312 344.199L460.455 300.048L572.126 213.432C584.082 204.444 594.009 199.951 601.904 199.951C619.05 199.951 649.235 187.93 649.235 204.332C649.235 221.184 616.568 263.087 594.46 289.6C584.082 302.183 569.644 315.776 551.145 330.381L363.674 471.933C351.267 481.819 341.453 490.02 334.234 496.536C304.455 544.394 275.805 579.108 248.282 600.678C208.351 632.134 171.353 647.862 137.288 647.862C121.948 647.862 109.427 643.593 99.7265 635.055C90.9282 627.64 86.529 618.99 86.529 609.103C86.529 599.891 89.0106 589.893 93.9737 579.108C98.9369 568.548 105.592 557.875 113.939 547.09C122.286 536.305 131.761 525.633 142.364 515.072C152.967 504.512 164.247 494.289 176.204 484.403C207.787 459.463 230.234 442.274 243.544 432.837L276.707 408.908C289.792 381.272 301.071 351.389 310.546 319.259C267.006 357.455 220.646 387.451 171.466 409.245C146.876 420.255 126.46 425.76 110.217 425.76C93.9737 425.76 79.0844 422.39 65.5486 415.649C52.0128 408.908 40.3945 400.033 30.6939 389.024C10.6158 365.881 0.576736 339.031 0.576736 308.474C0.576736 276.569 12.6462 249.719 36.785 227.924C73.106 195.12 124.542 166.585 191.093 142.319C255.163 118.727 309.419 106.931 353.861 106.931C368.525 106.931 375.857 114.121 375.857 128.501C375.857 138.387 373.939 146.026 370.104 151.419C366.494 156.586 357.583 161.642 343.371 166.585C329.384 171.528 313.818 177.37 296.672 184.11C279.753 190.851 263.622 198.266 248.282 206.354Z" fill="#323232"/>
</svg>
