<svg width="600" height="400" viewBox="0 0 600 400" fill="none" xmlns="http://www.w3.org/2000/svg">
<rect width="600" height="400" fill="#718096"/>
<path d="M265.938 153V244H244.062L211.875 187.375V244H189.938V153H211.875L244.062 209.625V153H265.938ZM318.312 227.562V176.375H339.438V244H319.688L318.312 227.562ZM320.312 213.812L325.812 213.688C325.812 218.229 325.271 222.438 324.188 226.312C323.104 230.146 321.5 233.479 319.375 236.312C317.292 239.146 314.708 241.354 311.625 242.938C308.583 244.479 305.062 245.25 301.062 245.25C297.729 245.25 294.667 244.792 291.875 243.875C289.125 242.917 286.75 241.438 284.75 239.438C282.75 237.396 281.188 234.792 280.062 231.625C278.979 228.417 278.438 224.583 278.438 220.125V176.375H299.5V220.25C299.5 221.75 299.688 223.042 300.062 224.125C300.438 225.208 300.979 226.125 301.688 226.875C302.396 227.583 303.271 228.125 304.312 228.5C305.396 228.833 306.625 229 308 229C311.167 229 313.646 228.333 315.438 227C317.229 225.667 318.479 223.854 319.188 221.562C319.938 219.271 320.312 216.688 320.312 213.812ZM373.312 148V244H352.188V148H373.312ZM408.562 148V244H387.438V148H408.562Z" fill="#EDF2F7" fill-opacity="0.8"/>
</svg>
