<svg width="27" height="28" viewBox="0 0 27 28" fill="none" xmlns="http://www.w3.org/2000/svg">
<path d="M14.368 13.88V12.92H26.944V13.88H14.368ZM14.368 15.992V15.032H26.944V15.992H14.368ZM14.368 18.104V17.144H26.944V18.104H14.368ZM14.304 27.48C12.2987 27.48 10.4747 27.1387 8.83202 26.456C7.21069 25.752 5.81336 24.792 4.64002 23.576C3.46669 22.36 2.56002 20.952 1.92002 19.352C1.28002 17.7307 0.960022 15.992 0.960022 14.136C0.960022 12.28 1.28002 10.552 1.92002 8.95199C2.56002 7.33066 3.46669 5.91199 4.64002 4.69599C5.81336 3.47999 7.21069 2.53066 8.83202 1.84799C10.4747 1.14399 12.2987 0.791992 14.304 0.791992C16.864 0.791992 19.1254 1.35733 21.088 2.48799C23.0507 3.59733 24.5867 5.07999 25.696 6.93599L24.864 7.47999C23.84 5.75199 22.4214 4.36533 20.608 3.31999C18.816 2.27466 16.7147 1.75199 14.304 1.75199C12.4267 1.75199 10.7307 2.07199 9.21602 2.71199C7.70136 3.35199 6.40002 4.23733 5.31202 5.36799C4.22402 6.49866 3.38136 7.82133 2.78402 9.33599C2.20802 10.8293 1.92002 12.4293 1.92002 14.136C1.92002 15.8427 2.20802 17.4533 2.78402 18.968C3.38136 20.4613 4.22402 21.7733 5.31202 22.904C6.40002 24.0347 7.70136 24.92 9.21602 25.56C10.7307 26.2 12.4267 26.52 14.304 26.52C16.1387 26.52 17.8027 26.2107 19.296 25.592C20.7894 24.9733 22.08 24.1093 23.168 23C24.256 21.8907 25.0987 20.6213 25.696 19.192H26.752C26.1334 20.8133 25.2267 22.2533 24.032 23.512C22.8587 24.7493 21.4507 25.72 19.808 26.424C18.1654 27.128 16.3307 27.48 14.304 27.48ZM14.304 23.256C12.4054 23.256 10.7734 22.8507 9.40802 22.04C8.04269 21.208 6.99736 20.0987 6.27202 18.712C5.54669 17.3253 5.18402 15.8 5.18402 14.136C5.18402 12.4507 5.54669 10.9253 6.27202 9.55999C6.99736 8.17333 8.04269 7.07466 9.40802 6.26399C10.7734 5.43199 12.4054 5.01599 14.304 5.01599C16.1387 5.01599 17.7174 5.41066 19.04 6.19999C20.384 6.96799 21.4187 7.99199 22.144 9.27199L21.312 9.81599C20.672 8.66399 19.7547 7.74666 18.56 7.06399C17.3654 6.35999 15.9467 6.00799 14.304 6.00799C12.5974 6.00799 11.1254 6.38133 9.88802 7.12799C8.67202 7.85333 7.74402 8.83466 7.10402 10.072C6.46402 11.288 6.14402 12.6427 6.14402 14.136C6.14402 15.6293 6.46402 16.9947 7.10402 18.232C7.74402 19.448 8.67202 20.4293 9.88802 21.176C11.1254 21.9013 12.5974 22.264 14.304 22.264C15.776 22.264 17.0667 21.9867 18.176 21.432C19.2854 20.856 20.1707 20.1093 20.832 19.192H22.048C21.3014 20.4293 20.2667 21.4213 18.944 22.168C17.6214 22.8933 16.0747 23.256 14.304 23.256ZM14.304 25.368C12.5974 25.368 11.0507 25.08 9.66402 24.504C8.29869 23.9067 7.11469 23.096 6.11202 22.072C5.13069 21.048 4.37336 19.864 3.84002 18.52C3.32802 17.1547 3.07202 15.6933 3.07202 14.136C3.07202 12.5787 3.32802 11.128 3.84002 9.78399C4.37336 8.41866 5.13069 7.22399 6.11202 6.19999C7.11469 5.15466 8.29869 4.34399 9.66402 3.76799C11.0507 3.19199 12.5974 2.90399 14.304 2.90399C16.5014 2.90399 18.4214 3.38399 20.064 4.34399C21.728 5.28266 23.0187 6.53066 23.936 8.08799L23.104 8.63199C22.2507 7.20266 21.0774 6.06133 19.584 5.20799C18.0907 4.33333 16.3307 3.89599 14.304 3.89599C12.2134 3.89599 10.3894 4.35466 8.83202 5.27199C7.29602 6.18933 6.11202 7.42666 5.28002 8.98399C4.44802 10.52 4.03202 12.2373 4.03202 14.136C4.03202 16.0133 4.44802 17.7307 5.28002 19.288C6.11202 20.8453 7.29602 22.0827 8.83202 23C10.3894 23.9173 12.2134 24.376 14.304 24.376C16.416 24.376 18.2507 23.9067 19.808 22.968C21.3654 22.008 22.5494 20.7493 23.36 19.192H24.448C23.5947 21.0267 22.2934 22.52 20.544 23.672C18.7947 24.8027 16.7147 25.368 14.304 25.368Z" fill="#ECECEC"/>
<path d="M14.0625 23V6H15V23H14.0625ZM12 23V6H12.9375V23H12Z" fill="#ECECEC"/>
<path d="M10 22L10.125 6H11.0625V22.5L10 22Z" fill="#ECECEC"/>
</svg>
