<svg width="28" height="38" viewBox="0 0 28 38" fill="none" xmlns="http://www.w3.org/2000/svg">
<path d="M14.368 16.88V15.92H26.944V16.88H14.368ZM14.368 18.992V18.032H26.944V18.992H14.368ZM14.368 21.104V20.144H26.944V21.104H14.368ZM14.304 30.48C12.2987 30.48 10.4747 30.1387 8.832 29.456C7.21067 28.752 5.81333 27.792 4.64 26.576C3.46667 25.36 2.56 23.952 1.92 22.352C1.28 20.7307 0.96 18.992 0.96 17.136C0.96 15.28 1.28 13.552 1.92 11.952C2.56 10.3307 3.46667 8.912 4.64 7.696C5.81333 6.48 7.21067 5.53067 8.832 4.848C10.4747 4.144 12.2987 3.792 14.304 3.792C16.864 3.792 19.1253 4.35733 21.088 5.488C23.0507 6.59733 24.5867 8.08 25.696 9.936L24.864 10.48C23.84 8.752 22.4213 7.36533 20.608 6.32C18.816 5.27467 16.7147 4.752 14.304 4.752C12.4267 4.752 10.7307 5.072 9.216 5.712C7.70133 6.352 6.4 7.23733 5.312 8.368C4.224 9.49867 3.38133 10.8213 2.784 12.336C2.208 13.8293 1.92 15.4293 1.92 17.136C1.92 18.8427 2.208 20.4533 2.784 21.968C3.38133 23.4613 4.224 24.7733 5.312 25.904C6.4 27.0347 7.70133 27.92 9.216 28.56C10.7307 29.2 12.4267 29.52 14.304 29.52C16.1387 29.52 17.8027 29.2107 19.296 28.592C20.7893 27.9733 22.08 27.1093 23.168 26C24.256 24.8907 25.0987 23.6213 25.696 22.192H26.752C26.1333 23.8133 25.2267 25.2533 24.032 26.512C22.8587 27.7493 21.4507 28.72 19.808 29.424C18.1653 30.128 16.3307 30.48 14.304 30.48ZM14.304 26.256C12.4053 26.256 10.7733 25.8507 9.408 25.04C8.04267 24.208 6.99733 23.0987 6.272 21.712C5.54667 20.3253 5.184 18.8 5.184 17.136C5.184 15.4507 5.54667 13.9253 6.272 12.56C6.99733 11.1733 8.04267 10.0747 9.408 9.264C10.7733 8.432 12.4053 8.016 14.304 8.016C16.1387 8.016 17.7173 8.41067 19.04 9.2C20.384 9.968 21.4187 10.992 22.144 12.272L21.312 12.816C20.672 11.664 19.7547 10.7467 18.56 10.064C17.3653 9.36 15.9467 9.008 14.304 9.008C12.5973 9.008 11.1253 9.38133 9.888 10.128C8.672 10.8533 7.744 11.8347 7.104 13.072C6.464 14.288 6.144 15.6427 6.144 17.136C6.144 18.6293 6.464 19.9947 7.104 21.232C7.744 22.448 8.672 23.4293 9.888 24.176C11.1253 24.9013 12.5973 25.264 14.304 25.264C15.776 25.264 17.0667 24.9867 18.176 24.432C19.2853 23.856 20.1707 23.1093 20.832 22.192H22.048C21.3013 23.4293 20.2667 24.4213 18.944 25.168C17.6213 25.8933 16.0747 26.256 14.304 26.256ZM14.304 28.368C12.5973 28.368 11.0507 28.08 9.664 27.504C8.29867 26.9067 7.11467 26.096 6.112 25.072C5.13067 24.048 4.37333 22.864 3.84 21.52C3.328 20.1547 3.072 18.6933 3.072 17.136C3.072 15.5787 3.328 14.128 3.84 12.784C4.37333 11.4187 5.13067 10.224 6.112 9.2C7.11467 8.15466 8.29867 7.344 9.664 6.768C11.0507 6.192 12.5973 5.904 14.304 5.904C16.5013 5.904 18.4213 6.384 20.064 7.344C21.728 8.28267 23.0187 9.53067 23.936 11.088L23.104 11.632C22.2507 10.2027 21.0773 9.06133 19.584 8.208C18.0907 7.33333 16.3307 6.896 14.304 6.896C12.2133 6.896 10.3893 7.35467 8.832 8.272C7.296 9.18933 6.112 10.4267 5.28 11.984C4.448 13.52 4.032 15.2373 4.032 17.136C4.032 19.0133 4.448 20.7307 5.28 22.288C6.112 23.8453 7.296 25.0827 8.832 26C10.3893 26.9173 12.2133 27.376 14.304 27.376C16.416 27.376 18.2507 26.9067 19.808 25.968C21.3653 25.008 22.5493 23.7493 23.36 22.192H24.448C23.5947 24.0267 22.2933 25.52 20.544 26.672C18.7947 27.8027 16.7147 28.368 14.304 28.368Z" fill="white"/>
<path d="M14.0625 26V9H15V26H14.0625ZM12 26V9H12.9375V26H12Z" fill="white"/>
<path d="M10 25L10.125 9H11.0625V25.5L10 25Z" fill="white"/>
</svg>
